<svg xmlns="http://www.w3.org/2000/svg" viewBox="0 0 500 500"><g id="freepik--background-complete--inject-469"><rect x="315.98" y="72.21" width="15.91" height="383.01" style="fill:#e0e0e0"></rect><rect x="157.62" y="88.37" width="158.36" height="366.86" style="fill:#ebebeb"></rect><rect x="147.4" y="72.21" width="14.65" height="383.01" style="fill:#e0e0e0"></rect><rect x="147.4" y="72.21" width="184.49" height="16.16" style="fill:#e0e0e0"></rect><path d="M331.89,72.21a3.37,3.37,0,0,1-.59.64l-1.72,1.63-5.7,5.34c-2.21,2.1-4.18,4-5.54,5.49a18.72,18.72,0,0,0-1.51,1.81,5.29,5.29,0,0,0-.33.54.61.61,0,0,1-.08.21s0-.08,0-.24a2.93,2.93,0,0,1,.26-.61,13.08,13.08,0,0,1,1.43-1.93,77.26,77.26,0,0,1,5.46-5.62c2.22-2.1,4.28-3.94,5.8-5.24.76-.65,1.38-1.17,1.81-1.52S331.87,72.18,331.89,72.21Z" style="fill:#ebebeb"></path><path d="M162.06,88.7c-.09.09-3.45-3.53-7.5-8.09s-7.25-8.31-7.16-8.4,3.45,3.53,7.5,8.09S162.15,88.61,162.06,88.7Z" style="fill:#ebebeb"></path><path d="M171.54,304.29h0a5.33,5.33,0,0,1-5.32-5.33V260.62a5.33,5.33,0,0,1,5.32-5.33h0a5.33,5.33,0,0,1,5.33,5.33V299A5.33,5.33,0,0,1,171.54,304.29Z" style="fill:#e0e0e0"></path><path d="M173.71,292.26a1.8,1.8,0,1,0-3.59,0,1.87,1.87,0,0,0,1,1.65v2.16a.82.82,0,0,0,.81.83h0a.82.82,0,0,0,.81-.83v-2.16A1.87,1.87,0,0,0,173.71,292.26Z" style="fill:#ebebeb"></path><rect x="171.4" y="271.8" width="29.34" height="5.86" rx="2.51" style="fill:#e0e0e0"></rect><path d="M182.06,277.82a3.39,3.39,0,0,1-.89.08l-2.43.11a21.14,21.14,0,0,1-3.63-.13,7.49,7.49,0,0,1-2.11-.55,3.74,3.74,0,0,1-1.81-1.61,2.87,2.87,0,0,1-.12-2.49,2,2,0,0,1,.81-.91,4.84,4.84,0,0,1,1-.44,10.88,10.88,0,0,1,3.62-.44c1,0,1.86.05,2.44.09a3.87,3.87,0,0,1,.89.1,25.07,25.07,0,0,1-3.32.14,11.6,11.6,0,0,0-3.5.52,2.35,2.35,0,0,0-1.54,1.14,2.47,2.47,0,0,0,.11,2.07,3.37,3.37,0,0,0,1.6,1.41,7.65,7.65,0,0,0,2,.54,23.67,23.67,0,0,0,3.57.23A17.38,17.38,0,0,1,182.06,277.82Z" style="fill:#ebebeb"></path><rect x="182.83" y="110.23" width="113.64" height="117.63" style="fill:#fafafa"></rect><rect x="359.27" y="69" width="106.93" height="168.98" style="fill:#e0e0e0"></rect><rect x="362.15" y="72.18" width="100.8" height="163.03" style="fill:#f5f5f5"></rect><rect x="412.55" y="81.67" width="40.19" height="62.37" style="fill:#fff"></rect><path d="M434.78,87.19a1.5,1.5,0,1,1-1.5-1.5A1.5,1.5,0,0,1,434.78,87.19Z" style="fill:#e0e0e0"></path><rect x="372.04" y="161.4" width="40.19" height="62.37" style="fill:#fff"></rect><path d="M394.28,166.91a1.5,1.5,0,1,1-1.5-1.5A1.5,1.5,0,0,1,394.28,166.91Z" style="fill:#e0e0e0"></path><rect x="371.5" y="81.67" width="34.33" height="48.7" style="fill:#fff"></rect><path d="M389.91,86.1a1.25,1.25,0,1,1-1.25-1.25A1.25,1.25,0,0,1,389.91,86.1Z" style="fill:#e0e0e0"></path><rect x="418.38" y="164.26" width="36.94" height="20.47" transform="translate(-16.81 50.07) rotate(-6.44)" style="fill:#fff"></rect><path d="M437.42,168.19a1.28,1.28,0,1,1-1.28-1.28A1.27,1.27,0,0,1,437.42,168.19Z" style="fill:#e0e0e0"></path><path d="M406.87,175.63c0,.16-6.31.3-14.09.3s-14.1-.14-14.1-.3,6.31-.3,14.1-.3S406.87,175.46,406.87,175.63Z" style="fill:#e0e0e0"></path><path d="M406.87,180.09c0,.16-6.31.3-14.09.3s-14.1-.14-14.1-.3,6.31-.3,14.1-.3S406.87,179.92,406.87,180.09Z" style="fill:#e0e0e0"></path><path d="M406.87,184.55c0,.17-6.31.3-14.09.3s-14.1-.13-14.1-.3,6.31-.3,14.1-.3S406.87,184.39,406.87,184.55Z" style="fill:#e0e0e0"></path><path d="M406.87,189c0,.17-6.31.3-14.09.3s-14.1-.13-14.1-.3,6.31-.3,14.1-.3S406.87,188.85,406.87,189Z" style="fill:#e0e0e0"></path><path d="M406.87,193.48c0,.16-6.31.3-14.09.3s-14.1-.14-14.1-.3,6.31-.3,14.1-.3S406.87,193.31,406.87,193.48Z" style="fill:#e0e0e0"></path><path d="M406.87,197.94c0,.16-6.31.3-14.09.3s-14.1-.14-14.1-.3,6.31-.3,14.1-.3S406.87,197.77,406.87,197.94Z" style="fill:#e0e0e0"></path><path d="M406.87,202.4c0,.17-6.31.3-14.09.3s-14.1-.13-14.1-.3,6.31-.3,14.1-.3S406.87,202.24,406.87,202.4Z" style="fill:#e0e0e0"></path><path d="M450.62,170.85c0,.16-6.2,1.17-13.91,2.26s-14,1.84-14,1.68,6.21-1.18,13.92-2.27S450.6,170.68,450.62,170.85Z" style="fill:#e0e0e0"></path><path d="M451.18,173.64c0,.16-6.2,1.18-13.91,2.26s-14,1.84-14,1.68,6.21-1.18,13.92-2.27S451.16,173.47,451.18,173.64Z" style="fill:#e0e0e0"></path><path d="M451.7,176.21c0,.17-6.21,1.18-13.92,2.27s-14,1.84-14,1.67S430,179,437.7,177.89,451.67,176.05,451.7,176.21Z" style="fill:#e0e0e0"></path><path d="M449.21,94.72c0,.17-7.13.3-15.92.3s-15.93-.13-15.93-.3,7.13-.3,15.93-.3S449.21,94.55,449.21,94.72Z" style="fill:#e0e0e0"></path><path d="M449.21,97.37c0,.17-7.13.3-15.92.3s-15.93-.13-15.93-.3,7.13-.3,15.93-.3S449.21,97.21,449.21,97.37Z" style="fill:#e0e0e0"></path><path d="M449.21,100c0,.16-7.13.3-15.92.3s-15.93-.14-15.93-.3,7.13-.3,15.93-.3S449.21,99.86,449.21,100Z" style="fill:#e0e0e0"></path><path d="M449.21,102.68c0,.17-7.13.3-15.92.3s-15.93-.13-15.93-.3,7.13-.3,15.93-.3S449.21,102.51,449.21,102.68Z" style="fill:#e0e0e0"></path><path d="M449.21,105.33c0,.17-7.13.3-15.92.3s-15.93-.13-15.93-.3,7.13-.3,15.93-.3S449.21,105.17,449.21,105.33Z" style="fill:#e0e0e0"></path><path d="M449.21,108c0,.16-7.13.3-15.92.3s-15.93-.14-15.93-.3,7.13-.3,15.93-.3S449.21,107.82,449.21,108Z" style="fill:#e0e0e0"></path><path d="M449.21,110.64c0,.17-7.13.3-15.92.3s-15.93-.13-15.93-.3,7.13-.3,15.93-.3S449.21,110.47,449.21,110.64Z" style="fill:#e0e0e0"></path><path d="M449.21,118.51c0,.17-7.13.3-15.92.3s-15.93-.13-15.93-.3,7.13-.3,15.93-.3S449.21,118.35,449.21,118.51Z" style="fill:#e0e0e0"></path><path d="M449.43,121.32c0,.16-7.13.3-15.92.3s-15.93-.14-15.93-.3,7.13-.3,15.93-.3S449.43,121.15,449.43,121.32Z" style="fill:#e0e0e0"></path><path d="M449.66,124.12c0,.16-7.13.3-15.93.3s-15.92-.14-15.92-.3,7.13-.3,15.92-.3S449.66,124,449.66,124.12Z" style="fill:#e0e0e0"></path><path d="M449.88,126.92c0,.17-7.13.3-15.92.3s-15.93-.13-15.93-.3,7.13-.3,15.93-.3S449.88,126.76,449.88,126.92Z" style="fill:#e0e0e0"></path><path d="M450.11,129.72c0,.17-7.13.3-15.93.3s-15.92-.13-15.92-.3,7.12-.3,15.92-.3S450.11,129.56,450.11,129.72Z" style="fill:#e0e0e0"></path><path d="M450.33,132.53c0,.16-7.13.3-15.92.3s-15.93-.14-15.93-.3,7.13-.3,15.93-.3S450.33,132.36,450.33,132.53Z" style="fill:#e0e0e0"></path><path d="M438,443.69c-1.21-1-3.91-4.32-1.83-8.15.76-1.4,2.38-2.09,3.85-2.71a15.65,15.65,0,0,0,4.22-2.18c2.28-1.95,2.92-5.18,4.43-7.78,1.75-3,5-5.21,8.44-5.06,3.94.18,7.22,3.4,8.71,7.06s1.54,7.74,1.57,11.7c0,2.19-.08,4.66-1.69,6.14S462,444.09,460,444l-21.51-.66" style="fill:#f5f5f5"></path><path d="M479.17,384.53H422.59l10.2,60.77a6.77,6.77,0,0,0,4.83,5.41l.2.05a4.07,4.07,0,0,0,.5.13,7.23,7.23,0,0,0,1.15.14v.06l.27,0H465a7,7,0,0,0,1.39-.14,6.8,6.8,0,0,0,5.72-5.94L477,403.09l.22-1.66h0l1.95-16.59ZM468.5,423.29h-5.81l.59-17.64H470Zm2.07-17.64h5.56l-2.07,17.64h-5ZM454,442.84l-.35-15.32H462l-.51,15.32Zm-9-15.32h8.13l.35,15.32h-7.29Zm.63,15.32h-6.81c-.65-4.13-1.49-9.51-2.4-15.32h8Zm-1-19.55-1.37-17.64h9.32l.41,17.64Zm8.92,0-.4-17.64h9.59l-.59,17.64Zm-.5-21.86-.38-16.34H463.4l-.54,16.34Zm-.56,0h-9.56l-1.26-16.34h10.44Zm-10.12,0h-10.1c-.36-2.26-.7-4.4-1-6.32-1.05-6.6-1.45-9.08-1.67-10h11.51Zm.33,4.22,1.37,17.64h-8.36c-.28-1.79-.56-3.6-.85-5.41-.65-4.16-1.31-8.32-1.92-12.23Zm-7.55,17.64h-5.46l-3-17.64h5.64C433.21,411.11,434.16,417.17,435.13,423.29Zm.66,4.23,2.4,15.32h-5.25l-2.57-15.32ZM462,442.84l.51-15.32h5.59l-1.31,15.32Zm1.38-41.41.54-16.34h7.8l-1.39,16.34ZM429,385.09c.22,1.18,1.25,7.61,2.64,16.34H426l-2.74-16.34Zm42.73,57.75h-4.38l1.31-15.32h4.86Zm4.86-41.41h-5.7l1.4-16.34h6.21Z" style="fill:#e0e0e0"></path><rect x="296.66" y="37.29" width="38.89" height="10.29" style="fill:#e0e0e0"></rect><path d="M347.07,37.29a.86.86,0,0,1,0-.19v-.53c0-.48,0-1.16,0-2,0-1.78,0-4.33-.07-7.55l.12.12-38.88.08c.09-.09-.2.2.19-.2h0V37.29l-.19-.2,27.71.09,8.18.06,2.21,0,.58,0h-.53l-2.17,0-8.14,0-27.84.09H308V27h0l.2-.2,38.88.08h.13V27c0,3.25-.06,5.83-.07,7.62,0,.85,0,1.52,0,2,0,.21,0,.37,0,.5S347.07,37.29,347.07,37.29Z" style="fill:#e0e0e0"></path><rect x="33.24" y="341.82" width="38.89" height="10.29" style="fill:#e0e0e0"></rect><path d="M83.65,341.82a.86.86,0,0,1,0-.19v-.53c0-.48,0-1.16,0-2,0-1.78,0-4.33-.06-7.55l.12.12-38.89.08c.09-.09-.2.19.19-.2h0v10.27l-.19-.2,27.71.09,8.18.06,2.21,0h.58l.21,0h-.74l-2.17,0-8.13.05L44.76,342h-.2V331.55h0l.2-.2,38.89.08h.12v.12c0,3.25,0,5.83-.07,7.62,0,.85,0,1.52,0,2,0,.2,0,.37,0,.5S83.65,341.82,83.65,341.82Z" style="fill:#e0e0e0"></path><rect x="49.91" y="123.93" width="38.89" height="10.29" style="fill:#e0e0e0"></rect><path d="M100.31,123.93a1.7,1.7,0,0,1,0-.19v-.53c0-.48,0-1.16,0-2,0-1.78,0-4.33-.07-7.55l.12.12-38.88.08c.08-.09-.2.19.19-.2h0v10.27l-.2-.2,27.72.09,8.18.06,2.21,0h.58a.8.8,0,0,1,.2,0h-.73l-2.17,0-8.14,0-27.85.09h-.19v-5.25c0-.86,0-1.73,0-2.6v-2.61h0c.4-.4.12-.11.21-.2l38.88.08h.12v.12c0,3.25-.05,5.83-.06,7.62,0,.85,0,1.52,0,2,0,.21,0,.37,0,.5S100.32,123.93,100.31,123.93Z" style="fill:#e0e0e0"></path><rect x="114.5" y="36.54" width="38.89" height="10.29" style="fill:#e0e0e0"></rect><rect x="427.61" y="328.13" width="38.89" height="10.29" style="fill:#e0e0e0"></rect></g><g id="freepik--Floor--inject-469"><path d="M480.58,455.76c0,.15-103.24.26-230.57.26s-230.59-.11-230.59-.26,103.22-.26,230.59-.26S480.58,455.62,480.58,455.76Z" style="fill:#263238"></path></g><g id="freepik--speech-bubble-2--inject-469"><polygon points="361.42 173.68 348.86 161.39 358.71 147.53 342.05 148.86 338.59 134.73 329.27 146.09 316.89 138.01 318.43 154.28 302.83 156.03 314.36 166.86 304.21 179.77 321.03 180.97 322.79 195.16 336.3 184.73 348.72 196.09 345.16 179.15 361.42 173.68" style="fill:#fff"></polygon><path d="M361.42,173.68l-16.23,5.57.07-.12c1,4.68,2.21,10.4,3.6,16.93l.09.43-.32-.3-12.44-11.34h.21L322.9,195.3l-.25.19,0-.31c-.56-4.49-1.16-9.27-1.77-14.19l.18.17L304.2,180l-.38,0,.24-.3,10.14-12.91,0,.28-9.91-9.31-1.62-1.52-.33-.31.45-.05,15.6-1.74-.18.22q-.8-8.33-1.53-16.27l0-.41.34.23,12.38,8.08-.26,0,9.33-11.35.23-.28.09.35q1.82,7.45,3.44,14.13l-.17-.12,16.66-1.31.29,0-.17.24c-3.84,5.39-7.13,10-9.88,13.84v-.14l12.49,12.37-12.63-12.22-.07-.06.06-.07q4.08-5.79,9.81-13.88l.13.22L342.06,149h-.14l0-.13q-1.65-6.68-3.47-14.12l.31.07-9.31,11.36-.11.13-.14-.09-12.38-8.07.3-.18q.75,7.92,1.54,16.27l0,.2-.2,0-15.6,1.74.12-.35,1.62,1.52,9.91,9.31.14.13-.12.14c-3.49,4.44-6.91,8.8-10.15,12.91l-.14-.32,16.82,1.2h.15l0,.16c.61,4.93,1.19,9.7,1.75,14.19l-.29-.12L336.2,184.6l.11-.08.1.09L348.82,196l-.23.13c-1.36-6.54-2.56-12.26-3.53-16.94l0-.09.09,0Z" style="fill:#263238"></path><path d="M329.73,172.88a2.89,2.89,0,0,1,3-2.86,2.85,2.85,0,1,1,.06,5.69A2.92,2.92,0,0,1,329.73,172.88Zm.41-19.15,5.15,0-.73,13.3-3.44,0Z" style="fill:#E5A17C"></path></g><g id="freepik--speech-bubble-1--inject-469"><polygon points="154.31 170.09 162.53 154.56 178.6 160.07 172.61 144.47 185.17 137.15 171.64 131.44 175.87 117.28 160.71 123.37 154.61 108.9 147.5 123.03 132.24 116.96 135.86 133.43 122.75 139.14 136.58 149.14 129.21 164.27 144.44 156.05 154.31 170.09" style="fill:#fff"></polygon><path d="M154.3,170.09l-9.94-14,.13,0-15.21,8.26-.38.2.18-.39,7.35-15.14,0,.2-13.84-10-.26-.18.3-.13,13.1-5.71-.11.21c-1.15-5.24-2.38-10.78-3.63-16.46l-.08-.37.35.14,15.26,6.06-.26.1,6.12-12.15,1-2,.21-.4.17.41q3.09,7.35,6.09,14.47l-.26-.11,15.17-6.09.38-.15-.12.4q-2.17,7.29-4.24,14.15l-.11-.23L185.24,137l.33.14-.31.18-12.57,7.31.07-.2,6,15.6.1.28-.28-.1-16.07-5.54.13,0c-5.31,9.89-8,14.83-8.32,15.48l8.14-15.58,0-.08.08,0,16.09,5.48-.18.18-6-15.59-.05-.13.12-.07L185.08,137l0,.32-13.54-5.71-.15-.06,0-.17q2.06-6.85,4.23-14.16l.27.24-15.17,6.1-.19.07-.07-.18q-3-7.11-6.1-14.47h.37l-1,2-6.11,12.14-.09.17-.17-.07-15.26-6.07.27-.23,3.62,16.47,0,.15-.14.07-13.12,5.69,0-.31,13.83,10,.11.08-.06.12c-2.69,5.49-5.18,10.6-7.39,15.12l-.2-.18L144.39,156l.08,0,.05.07Z" style="fill:#263238"></path><path d="M151.69,146.89a2.89,2.89,0,0,1,3-2.85,2.84,2.84,0,1,1,.06,5.68A2.91,2.91,0,0,1,151.69,146.89Zm.41-19.14,5.15,0-.73,13.3-3.44,0Z" style="fill:#E5A17C"></path></g><g id="freepik--character-3--inject-469"><path d="M399.5,185.85a22,22,0,0,1,10.31-12.46l-.41-.32a9.21,9.21,0,0,1,10.91,6.07,31.11,31.11,0,0,1,.63,5.63,7.92,7.92,0,0,0,2.08,5.15c.75.69,1.68,1.13,2.46,1.77a2.84,2.84,0,0,1,1.22,2.61c-.27,1.26-1.75,1.86-3,1.95s-2.65-.14-3.83.39a4,4,0,1,1-5.58,5.85,4.89,4.89,0,0,1-2.89,5.53,7,7,0,0,1-6.48-.81,12.71,12.71,0,0,1-4.24-5.23A22,22,0,0,1,399.5,185.85Z" style="fill:#263238"></path><path d="M367.23,171.91a4.33,4.33,0,0,1,3.59-2.94,12.71,12.71,0,0,1,4.85.45,16.54,16.54,0,0,1-.4-6.48c.45-2.14,2-4.2,4.14-4.55,1.86-.31,3.68.69,5.14,1.87a25.31,25.31,0,0,0,4.43,3.46c4.36,2.18,9.71-.25,14.47.83s8.89,6.87,8,11.81c-8.13,2.83-16.34,5.71-23.65,10.27-3.95,2.46-8.2,5.55-12.78,4.68a8.08,8.08,0,0,1-4.32-13.53C368.82,176.31,366.67,174.26,367.23,171.91Z" style="fill:#263238"></path><path d="M376,185.15c.71-6.74,8.26-13.19,15-12.2L412.61,178l-3.85,3-3.93,40.91.92,2.87h0s1,16.2-11.24,14.87c-11-1.2-9.89-12.8-9.89-12.8l.84-7.51s-9-1.68-10.35-13C374.45,200.72,375.21,192.63,376,185.15Z" style="fill:#ae7461"></path><path d="M378.31,195.76a1.45,1.45,0,0,0,1.33,1.52,1.39,1.39,0,0,0,1.54-1.25,1.44,1.44,0,0,0-1.33-1.51A1.37,1.37,0,0,0,378.31,195.76Z" style="fill:#263238"></path><path d="M377.73,191.22c.17.19,1.3-.57,2.86-.5s2.66.89,2.83.7-.08-.42-.56-.81a4,4,0,0,0-2.26-.8,3.8,3.8,0,0,0-2.28.64C377.82,190.8,377.65,191.13,377.73,191.22Z" style="fill:#263238"></path><path d="M391,196.79a1.45,1.45,0,0,0,1.33,1.52,1.39,1.39,0,0,0,1.54-1.24,1.45,1.45,0,0,0-1.33-1.52A1.39,1.39,0,0,0,391,196.79Z" style="fill:#263238"></path><path d="M392,192.05c.17.19,1.3-.57,2.85-.5s2.66.89,2.84.7-.08-.42-.56-.81a4,4,0,0,0-2.27-.8,3.84,3.84,0,0,0-2.28.64C392.11,191.63,391.94,192,392,192.05Z" style="fill:#263238"></path><path d="M386.88,203.89a12.32,12.32,0,0,0-2.51-.5c-.39-.06-.76-.14-.82-.37s.09-.61.29-1l1.26-2.5c.47-.91,2.81-6.07,2.86-6.57-.18-.07-1.73,2.77-3.48,6.34l-1.21,2.52a1.68,1.68,0,0,0-.25,1.31,1,1,0,0,0,.64.53,3,3,0,0,0,.67.11A11,11,0,0,0,386.88,203.89Z" style="fill:#263238"></path><path d="M385.23,219.42a28.65,28.65,0,0,0,15.24-3.4s-4.17,7.7-15.39,6.19Z" style="fill:#6f4439"></path><path d="M391.46,189.51c.16.48,1.51.18,3.13.36s2.93.69,3.13.24c.08-.22-.17-.67-.71-1.12a4.47,4.47,0,0,0-2.36-1,4,4,0,0,0-2.41.5C391.67,188.87,391.39,189.27,391.46,189.51Z" style="fill:#263238"></path><path d="M378,186.81c.08.51,1.28.62,2.5,1.2s2.11,1.36,2.54,1.08c.2-.14.23-.59,0-1.17a3.46,3.46,0,0,0-1.71-1.61,3.62,3.62,0,0,0-2.35-.23C378.29,186.26,378,186.57,378,186.81Z" style="fill:#263238"></path><path d="M377.23,178.8a16.38,16.38,0,0,1,10.39-7.32,27.09,27.09,0,0,1,12.93.42,80.79,80.79,0,0,1,12.24,4.55,4.32,4.32,0,0,1,2.44,1.88,4.22,4.22,0,0,1,.17,2.12l-1.59,18.05-1.76,3.65c-1.95,0-3.55-1.53-4.78-3.05A27,27,0,0,1,401.51,180a8.67,8.67,0,0,0-1.16,2.59,3,3,0,0,1-1.86,2c-1.54.36-2.77-1.41-2.95-3s.14-3.26-.58-4.67a18.19,18.19,0,0,1-6.17,5.26c-1.14.59-2.65,1-3.62.19a2.43,2.43,0,0,1-.59-2.51A7.28,7.28,0,0,1,386,177.5a14.19,14.19,0,0,1-7.1,3.93,2,2,0,0,1-1.73-.2C376.47,180.64,376.79,179.56,377.23,178.8Z" style="fill:#263238"></path><path d="M406.88,196.35c.18-.06,7-1.71,6.46,5.16S406,206.4,406,206.2,406.88,196.35,406.88,196.35Z" style="fill:#ae7461"></path><path d="M408.32,203.77s.11.09.31.2a1.15,1.15,0,0,0,.89.09,3,3,0,0,0,1.58-2.54,3.82,3.82,0,0,0-.2-1.74,1.35,1.35,0,0,0-.82-1,.62.62,0,0,0-.73.27c-.11.19-.08.33-.11.34s-.14-.13-.06-.41a.79.79,0,0,1,.3-.41.91.91,0,0,1,.68-.12,1.69,1.69,0,0,1,1.16,1.16,4,4,0,0,1,.26,1.95c-.15,1.38-1,2.62-2,2.82a1.27,1.27,0,0,1-1.08-.27C408.32,203.94,408.3,203.78,408.32,203.77Z" style="fill:#6f4439"></path><path d="M403,179.2a2.26,2.26,0,0,0,.12.41c.09.26.24.64.46,1.13a22,22,0,0,0,2.24,3.9,23.62,23.62,0,0,0,2,2.4c.39.41.79.82,1.25,1.22a3.38,3.38,0,0,0,1.69.87,2.07,2.07,0,0,0,1.84-.78,3.74,3.74,0,0,0,.8-1.92c.15-1.44-.42-2.81-.5-4.21,0-.18,0-.37,0-.54l-.32.11,2.65,3.16,1.27,1.51a3.72,3.72,0,0,0,1.5,1.21,1.38,1.38,0,0,0,1,0,1.5,1.5,0,0,0,.7-.66,4,4,0,0,0,.49-1.66,12.32,12.32,0,0,0,0-3,11.8,11.8,0,0,0-1.32-4.16,10.49,10.49,0,0,0-.62-1,1.5,1.5,0,0,0-.26-.32s.3.48.76,1.4a12.61,12.61,0,0,1,1.19,4.12,11.43,11.43,0,0,1,0,3,3.76,3.76,0,0,1-.45,1.54,1.09,1.09,0,0,1-1.33.54,3.53,3.53,0,0,1-1.36-1.13l-1.25-1.51-2.63-3.16-.31-.37,0,.48c0,.18,0,.38,0,.57.1,1.48.65,2.84.51,4.14a3.31,3.31,0,0,1-.72,1.74,1.72,1.72,0,0,1-1.53.68,3.08,3.08,0,0,1-1.52-.78c-.44-.38-.85-.79-1.24-1.18a24.68,24.68,0,0,1-2-2.35,24.39,24.39,0,0,1-2.32-3.81c-.24-.47-.41-.85-.52-1.1A1.44,1.44,0,0,0,403,179.2Z" style="fill:#455a64"></path><path d="M392,203.89a.91.91,0,0,0-.47-.18,1,1,0,0,0-.65.35q-1.65,1.44-3.29,2.89a3.37,3.37,0,0,0,2.79,1.94,2.89,2.89,0,0,0,2.68-2A2.72,2.72,0,0,0,392,203.89Z" style="fill:#6f4439"></path><path d="M390.69,209.34a6.26,6.26,0,0,0,1.42-1.09,3.17,3.17,0,0,0,.21-3.85A1.19,1.19,0,0,0,392,204a.32.32,0,0,0-.35,0c-.27.17-.61.48-.9.69L389.14,206a6.86,6.86,0,0,1-1.55,1,6.65,6.65,0,0,1,1.31-1.32l1.52-1.32c.31-.24.54-.49.95-.77a.86.86,0,0,1,.85,0,1.52,1.52,0,0,1,.53.54,3.54,3.54,0,0,1,.57,2.51,3.39,3.39,0,0,1-.94,1.88A2.35,2.35,0,0,1,390.69,209.34Z" style="fill:#263238"></path><path d="M388.6,426.55l1.25,27.62-35.19,1.75c0-3.29,17.91-10.79,17.91-10.79L371,427.47Z" style="fill:#455a64"></path><path d="M383.38,443.1a1.33,1.33,0,1,1-.49,2.61,1.48,1.48,0,0,1-1.13-1.65,1.43,1.43,0,0,1,1.75-.92" style="fill:#fff"></path><path d="M389.86,454.22l-.12-3L356,454.21s-1.53.75-1.29,1.82Z" style="fill:#263238"></path><path d="M372,445c0,.16.88.2,1.75.69s1.36,1.18,1.52,1.11-.15-1-1.22-1.62S372,444.83,372,445Z" style="fill:#263238"></path><path d="M368.38,446.66c0,.16.73.41,1.34,1.09s.83,1.42,1,1.41.23-1-.55-1.8S368.37,446.5,368.38,446.66Z" style="fill:#263238"></path><path d="M366.5,451.08c.16,0,.35-.83-.13-1.72s-1.31-1.23-1.38-1.08.46.61.85,1.35S366.33,451.07,366.5,451.08Z" style="fill:#263238"></path><path d="M372.1,440.92c.08.15.86-.12,1.83-.1s1.75.27,1.83.12-.68-.71-1.82-.71S372,440.79,372.1,440.92Z" style="fill:#263238"></path><path d="M400.07,427.09l1.38,27.9-34.86,1.07c0-3.32,17.7-10.53,17.7-10.53l-1.63-17.86Z" style="fill:#455a64"></path><path d="M395,443.69a1.46,1.46,0,0,1,1.08,1.59,1.33,1.33,0,0,1-1.55,1,1.53,1.53,0,0,1-1.13-1.68,1.39,1.39,0,0,1,1.73-.9" style="fill:#fff"></path><path d="M401.46,455.05l-.13-3-33.46,2.31s-1.51.73-1.26,1.81Z" style="fill:#263238"></path><path d="M383.71,445.37c0,.17.87.22,1.74.74s1.35,1.22,1.5,1.14-.15-1-1.21-1.65S383.67,445.21,383.71,445.37Z" style="fill:#263238"></path><path d="M380.14,447c0,.16.72.43,1.34,1.13s.82,1.45,1,1.44.23-1-.56-1.83S380.13,446.83,380.14,447Z" style="fill:#263238"></path><path d="M378.3,451.41c.16,0,.35-.82-.14-1.74s-1.31-1.26-1.37-1.12.46.63.85,1.39S378.13,451.4,378.3,451.41Z" style="fill:#263238"></path><path d="M383.79,441.27c.08.15.85-.11,1.82-.07s1.73.31,1.81.17-.67-.74-1.81-.76S383.7,441.14,383.79,441.27Z" style="fill:#263238"></path><path d="M370.84,303.76l-.73,12.34S358,366.28,360.4,380.05c3.06,17.31,10.4,63.63,10.4,63.63l21.73-.27s-1.06-41.84-5.5-59.79c-4.76-19.27,5.37-78.07,5.37-78.07Z" style="fill:#263238"></path><path d="M367,301.53l40.75-4a93.22,93.22,0,0,1,4.48,23.16c.59,9.82-5.44,26.53-5.44,26.53-2.76,9-7.1,27.8-7.1,27.8l3.59,68.15-16,.35s-14-57.36-16.18-65.47c-3.3-12.17.76-45.55.76-45.55C371.29,327,367,301.53,367,301.53Z" style="fill:#263238"></path><path d="M367,301.53a2.49,2.49,0,0,1,.1.44c.05.32.13.75.23,1.31.2,1.17.48,2.86.84,5,.71,4.4,1.74,10.72,3,18.51v0c-.23,7.3-.51,15.91-.81,25.42q-.12,3.57-.24,7.31a55.12,55.12,0,0,0,.22,7.57,157.7,157.7,0,0,0,2.54,15.74c.62,3,1.28,6,2,8.86a81.21,81.21,0,0,1,1.68,8.64c.89,5.68,1.7,11.13,2.46,16.29,1.48,10.31,2.78,19.41,3.83,26.74l-.17-.15,15.17-.16h5.11a1.35,1.35,0,0,1,.35,0l-.35,0-1.05,0-4.06.11-15.17.31h-.15l0-.15c-1.09-7.31-2.43-16.41-4-26.71-.79-5.15-1.63-10.6-2.5-16.28a80.45,80.45,0,0,0-1.67-8.6c-.7-2.91-1.36-5.86-2-8.87a155.43,155.43,0,0,1-2.53-15.8,53.09,53.09,0,0,1-.22-7.64q.13-3.74.26-7.3c.34-9.52.65-18.13.91-25.42v0c-1.19-7.81-2.15-14.13-2.83-18.54-.31-2.17-.56-3.87-.74-5L367,302A2.19,2.19,0,0,1,367,301.53Z" style="fill:#455a64"></path><path d="M377.14,230.55c-.1.42-7.14,13.53-7.78,20.14-.66,6.81-.64,6.33-.64,6.33l-4.61,44.51L367,313.9l45.23-7.85L409,262.66l2.23-17.88a37.68,37.68,0,0,0-6.57-26.31h0s-16.35.64-17.51,1.17l-6.43,6Z" style="fill:#E5A17C"></path><path d="M410.66,292.71S385,264.52,381.45,255.77c-5.14-12.75-6.56-26.18,1-33.16s18.62-3.82,24.1,1.79c3.89,4,10.16,27.08,10.16,27.08l-6.62,2.32s-4.86-39.62-21.7-32.75c-6.87,2.81-9.62,9.16-8.6,15.64s4.91,23,31.23,46.19l.46,6.68Z" style="fill:#263238"></path><path d="M409.19,253.42s8.25-2.83,13-2.34,16.88,9.77,19,12.84,9.85,21.21,10.9,25.18.1,11-4,13c-3.75,1.79-18.74,6.25-27.48,5.76h-.26c-6-.37-10.6-4.07-10.77-8.6l-1.35-37.38Z" style="fill:#263238"></path><path d="M414.43,252.38a5.57,5.57,0,0,0,.81.93c.56.58,1.38,1.42,2.42,2.43,2.09,2,5.07,4.77,8.56,7.66a24.54,24.54,0,0,0,5.34,3.79,7.64,7.64,0,0,0,3.12.66c1,0,1.93,0,2.79,0a10,10,0,0,0,3.94-.75,4.57,4.57,0,0,0,.87-.53q.25-.22.24-.24s-.38.29-1.21.64a10.57,10.57,0,0,1-3.85.61c-.84,0-1.76,0-2.76-.06a7.06,7.06,0,0,1-2.9-.64,25.81,25.81,0,0,1-5.2-3.75c-3.48-2.89-6.5-5.59-8.65-7.57l-2.55-2.34A6.54,6.54,0,0,0,414.43,252.38Z" style="fill:#455a64"></path><path d="M409.2,297.64a13.63,13.63,0,0,0,1.74-.13c1.11-.12,2.72-.31,4.7-.57,4-.51,9.42-1.33,15.39-2.43s11.33-2.28,15.17-3.2c1.93-.47,3.47-.86,4.54-1.15a11.82,11.82,0,0,0,1.63-.48s-.61.1-1.69.34l-4.57,1c-3.87.86-9.23,2-15.19,3.09s-11.39,2-15.34,2.54l-4.67.68C409.81,297.52,409.2,297.62,409.2,297.64Z" style="fill:#455a64"></path><path d="M428,264.78a6.17,6.17,0,0,0-.09,1.17c0,.75,0,1.84,0,3.18a75.62,75.62,0,0,0,1,10.47,78.15,78.15,0,0,0,2.45,10.3c.41,1.3.77,2.35,1.05,3.07a6,6,0,0,0,.47,1.1,5,5,0,0,0-.28-1.15c-.23-.79-.53-1.83-.89-3.09a104.3,104.3,0,0,1-2.29-10.29,99.75,99.75,0,0,1-1.17-10.42c-.07-1.29-.12-2.36-.16-3.18A4.94,4.94,0,0,0,428,264.78Z" style="fill:#455a64"></path><path d="M434.42,266.27l2.56,0a.66.66,0,0,1,.17.37c.08.38.16.76.25,1.13a2.37,2.37,0,0,1,.06,1.12,1.25,1.25,0,0,1-.88.86,1.63,1.63,0,0,1-1.63-.6,3.16,3.16,0,0,1-.48-1.43C434.42,267.26,434.44,266.84,434.42,266.27Z" style="fill:#455a64"></path><path d="M429.68,282.19a18,18,0,0,0,2.7-.3c1.65-.25,3.91-.65,6.39-1.18s4.69-1.09,6.27-1.53a15.5,15.5,0,0,0,2.52-.81,18.72,18.72,0,0,0-2.63.54c-1.61.38-3.82.89-6.29,1.42s-4.71,1-6.34,1.28A19.24,19.24,0,0,0,429.68,282.19Z" style="fill:#455a64"></path><g style="opacity:0.30000000000000004"><path d="M386.74,249.88s-6,7.74-17.94,12l.17-5.07s12.61-7,12.85-6.78S386.74,249.88,386.74,249.88Z"></path></g><path d="M404.56,218.47a70.11,70.11,0,0,1,23.69,3.7,6.14,6.14,0,0,1,2.88,1.64c1,1.21,1,2.95.8,4.51a26.38,26.38,0,0,1-4.76,12c-1.14,1.58-2.61,3.12-4.52,3.46-2.37.43-4.64-1.09-6.31-2.82-4.21-4.38-6.27-10.35-8.2-16.11" style="fill:#E5A17C"></path><path d="M318.55,245.64a10.07,10.07,0,0,0-3.18-1.64c-1.59-.37-7.42-.32-12.72.6-5,.85-6.75,1-6.65,2.5s2.27,1.22,5.24.88a10.57,10.57,0,0,1,4.05.14s-1.43,2.35.76,3.81c0,0-.13,3.61,2.81,3.55,0,0-.53,1.7,2.18,2.09,0,0,4.94-.39,7.55-.5.12,0,5.13.78,5.13.78l3.56-9.31-5.6-.33Z" style="fill:#ae7461"></path><path d="M322.83,246.5l30.81.17C358.36,243,379,228,383.83,224.41c2.58-1.91,5.41-3.86,8.61-3.88l2.45.09c4.46,1.8,7.11,6.8,7,11.6s-2.51,9.33-5.78,12.86c-3.05,3.28-17.26,8.09-22.49,10.71L361.58,261c-7.37,2.52-39.66-2.05-39.66-2.05Z" style="fill:#E5A17C"></path><path d="M399.88,225.84a3.05,3.05,0,0,1,.53.75,11.88,11.88,0,0,1,1,2.27,13.93,13.93,0,0,1-4.06,15.1,11.78,11.78,0,0,1-2,1.44,2.68,2.68,0,0,1-.83.37c0-.08,1.12-.67,2.62-2.09a14.32,14.32,0,0,0,4-14.71C400.51,227,399.79,225.89,399.88,225.84Z" style="fill:#263238"></path></g><g id="freepik--character-2--inject-469"><path d="M248.58,169.85s-8.68-3-20.19,4.31c-5.71,3.63-8.27,10.89-9.48,23.35s17.67,22,18.36,23.05l25.24-41.46Z" style="fill:#263238"></path><path d="M228.39,193.74a17.68,17.68,0,0,1,9.39-15.4,21.76,21.76,0,0,1,8.44-2A13.38,13.38,0,0,1,254,178c1.81.43,8.05,6.05,8.39,12.67.38,7.36,1,15.42.24,20.92-1.33,9.7-10.57,12-10.57,12l.77,20.09-20.12-9.78Z" style="fill:#ffbf9d"></path><path d="M258.46,200.64a1.41,1.41,0,0,1-1.38,1.41,1.35,1.35,0,0,1-1.45-1.29,1.41,1.41,0,0,1,1.38-1.41A1.35,1.35,0,0,1,258.46,200.64Z" style="fill:#263238"></path><path d="M260.24,195.27c-.17.18-1.24-.63-2.76-.64s-2.65.73-2.81.54.1-.41.59-.76a3.87,3.87,0,0,1,2.26-.66,3.69,3.69,0,0,1,2.19.73C260.18,194.85,260.33,195.18,260.24,195.27Z" style="fill:#263238"></path><path d="M251.19,207.25a10.16,10.16,0,0,1,2.48-.41c.39,0,.76-.11.82-.38a1.93,1.93,0,0,0-.24-1.15l-1.12-3c-1.54-4.23-2-5.91-1.87-6s1,1.52,2.49,5.75c.37,1,.73,2,1.07,3a2.24,2.24,0,0,1,.18,1.53,1,1,0,0,1-.64.56,2.43,2.43,0,0,1-.67.09A9.78,9.78,0,0,1,251.19,207.25Z" style="fill:#263238"></path><path d="M252.06,223.53a28.16,28.16,0,0,1-14.79-4.11s3.84,7.82,14.9,6.92Z" style="fill:#ff9a6c"></path><path d="M253.08,189.94c.41-.29,1.55.41,3,.81s2.8.45,3,.91c.08.23-.21.55-.85.77a4.68,4.68,0,0,1-2.63,0,4.57,4.57,0,0,1-2.23-1.37C253,190.52,252.89,190.09,253.08,189.94Z" style="fill:#263238"></path><path d="M242.85,200.66a1.41,1.41,0,0,0,1.4,1.39,1.35,1.35,0,0,0,1.43-1.31,1.41,1.41,0,0,0-1.4-1.39A1.35,1.35,0,0,0,242.85,200.66Z" style="fill:#263238"></path><path d="M239.4,195.53c.18.18,1.23-.64,2.76-.67s2.65.69,2.81.5-.1-.41-.6-.75a3.94,3.94,0,0,0-2.26-.64,3.74,3.74,0,0,0-2.19.77C239.46,195.11,239.31,195.45,239.4,195.53Z" style="fill:#263238"></path><path d="M247.2,210.23a24.29,24.29,0,0,1,2.8-.07c1.5.2,2.54,1,2.72.84s-.06-.33-.51-.67a4.74,4.74,0,0,0-2.16-.85,4.55,4.55,0,0,0-2.25.23C247.31,209.92,247.12,210.15,247.2,210.23Z" style="fill:#263238"></path><path d="M245.63,190.35c-.48-.36-1.87.43-3.66.86s-3.38.45-3.63,1c-.1.26.24.65,1,.91a5.67,5.67,0,0,0,3.15.05,5.57,5.57,0,0,0,2.72-1.53C245.74,191,245.84,190.52,245.63,190.35Z" style="fill:#263238"></path><path d="M230.05,204.23c0-.83-.92-2.78-1.73-2.91-2.17-.37-6.08-.24-6.18,5.27-.14,7.52,8.25,6,8.27,5.84S230,207.06,230.05,204.23Z" style="fill:#ffbf9d"></path><path d="M227.58,209.7s-.13.08-.36.18a1.26,1.26,0,0,1-1,0c-.79-.3-1.43-1.58-1.44-2.93a4.15,4.15,0,0,1,.4-1.87,1.5,1.5,0,0,1,1-1,.67.67,0,0,1,.77.37c.1.21,0,.36.08.38s.17-.13.11-.44a.81.81,0,0,0-.28-.47,1,1,0,0,0-.73-.21,1.84,1.84,0,0,0-1.39,1.14,4.42,4.42,0,0,0-.49,2.09c0,1.52.77,3,1.85,3.29a1.47,1.47,0,0,0,1.21-.18C227.56,209.88,227.6,209.71,227.58,209.7Z" style="fill:#ff9a6c"></path><path d="M262.17,178.51c-2.95-4.6-8.16-8.19-13.59-8.66s-11,2.09-15.25,5.53a42.79,42.79,0,0,0-7.05,23.3c1.63,2,2.91,4.23,4.45,4.39,1.38.15,1.54-2.22,1.9-3.72.72-3,1.88-6.76,2.6-9.8.77-3.22.31-7.24,3.39-8.47,3.47-1.38,7.58,1.18,11-.19,1.71-.67,3.17-2.26,5-2.08a4.93,4.93,0,0,1,3.08,2c3.12,3.7,4.88,15,5.17,19.85C265.46,195.87,265.12,183.1,262.17,178.51Z" style="fill:#263238"></path><path d="M236.37,180.33a6.4,6.4,0,0,1,.63,6.95,38,38,0,0,0,10-.42c.09-1.24.17-2.48.26-3.71a5.72,5.72,0,0,1,1.14,4A125.25,125.25,0,0,0,261,186.1a8.9,8.9,0,0,0-2.61-8.28,14.46,14.46,0,0,0-8.12-3.73,40,40,0,0,0-9.08,0" style="fill:#263238"></path><path d="M224.29,179.81a14.57,14.57,0,0,1-2-.72,14.94,14.94,0,0,1-2.08-.55,3,3,0,0,1,2.24.06C223.62,179,224.38,179.7,224.29,179.81Z" style="fill:#263238"></path><path d="M225.35,179.53a4.3,4.3,0,0,1-2.66-4.84,15.66,15.66,0,0,0,.91,2.65A16.44,16.44,0,0,0,225.35,179.53Z" style="fill:#263238"></path><path d="M227.07,432.44l.89,14.79s-16.16,5.79-16.29,8.53l31.46-.54-.35-23.09Z" style="fill:#263238"></path><path d="M243.13,455.22,243,452.9l-30.11,1.39s-1.39.58-1.21,1.47Z" style="fill:#455a64"></path><path d="M227.44,447.09c0,.14.78.19,1.55.63s1.18,1,1.32,1-.11-.86-1.05-1.38S227.41,447,227.44,447.09Z" style="fill:#fff"></path><path d="M224.17,448.39c0,.14.64.37,1.17.95s.7,1.21.85,1.2.24-.8-.44-1.52S224.17,448.26,224.17,448.39Z" style="fill:#fff"></path><path d="M222.37,452c.14,0,.34-.68-.07-1.44s-1.14-1-1.2-.93.39.52.72,1.15S222.22,452,222.37,452Z" style="fill:#fff"></path><path d="M264.4,430.52l-.6,18.59,4.92,15a2,2,0,0,1-1.58,2.5h0a2.24,2.24,0,0,1-1.9-.42C262,463.57,249.9,453.75,250,452.35c.08-1.63.23-20.44.23-20.44Z" style="fill:#263238"></path><path d="M267.14,466.64l-17.22-15.58,0,.81a2.83,2.83,0,0,0,.83,1.88c1.38,1.36,5.28,5.06,14.39,12.47a2.26,2.26,0,0,0,2,.42Z" style="fill:#455a64"></path><path d="M264.37,450.93c0,.13-1.11-.05-2.37.27s-2.14,1-2.23.86a4,4,0,0,1,4.6-1.13Z" style="fill:#fff"></path><path d="M265.61,454.61c0,.13-.85,0-1.81.26s-1.64.71-1.73.61.52-.81,1.62-1.07S265.66,454.49,265.61,454.61Z" style="fill:#fff"></path><path d="M275.31,303.7l-62.45,1.6a157.84,157.84,0,0,0-1.19,33.9c1.49,17.14,6.55,48.59,6.55,48.59a234.56,234.56,0,0,1,2.87,25.13c.89,13.9,6.42,31.13,6.42,31.13l15.54.29s.91-35.17.81-43c-.13-9.8,0-11.79-.37-18.69l1-37.88.85-.12,2.62,38c.37,9.88.6,12.63.3,19.88-.32,7.78,1.26,41.9,1.26,41.9H264.4s6.18-29.07,7-41.61c.91-14.73,5.18-59.62,5.18-59.62s0-13,0-15.46C276.55,315.38,275.31,303.7,275.31,303.7Z" style="fill:#263238"></path><path d="M264.4,444.48a71.57,71.57,0,0,1-7.55.2,71.57,71.57,0,0,1-7.55-.2,71.57,71.57,0,0,1,7.55-.2A71.57,71.57,0,0,1,264.4,444.48Z" style="fill:#455a64"></path><path d="M243.25,444.15c0,.1-3.53.19-7.87.19s-7.87-.09-7.87-.19a77.86,77.86,0,0,1,7.87-.2A77.86,77.86,0,0,1,243.25,444.15Z" style="fill:#455a64"></path><path d="M252.17,228.16,271.65,232l4,35.28L272.19,290c1.63,4.38,6.66,29,6.66,29-21.23,11.06-65.75.18-68.17-.76-3-1.17,1.29-26.35,1.59-28.26s4.67-22.5,4.67-22.5h0l-5.07-22.81-6.67-3.56c2.51-7.5,6-10.55,9.56-11.72S232.1,228,232.1,228s.08,3.94,9.62,3.94C253.78,232,252.17,228.16,252.17,228.16Z" style="fill:#455a64"></path><path d="M281.93,270.71l-2.4-27c-1.44-8.47-4.91-10.34-7.88-11.7L270,234.4l-4.28,33.73v5.62Z" style="fill:#455a64"></path><path d="M265.6,250.35c.11,0-.37,5.27-1.08,11.75s-1.38,11.72-1.49,11.71.37-5.28,1.08-11.76S265.49,250.33,265.6,250.35Z" style="fill:#263238"></path><path d="M221.52,252.51c.11,0,.38,5.27.61,11.78s.32,11.8.2,11.8-.38-5.27-.61-11.79S221.4,252.51,221.52,252.51Z" style="fill:#263238"></path><path d="M204.53,262.08s.27,13.57,1.56,26.58c1.52,15.35,7.36,35.61,7.36,35.61l9.38-2.78c0-8.36.06-16.79-1.08-26.12l-.44-26.53Z" style="fill:#ffbf9d"></path><path d="M212.88,322.21s-.12,9.85.2,11c0,0,.71,2.34,1.56,2.57s1.14,0,1.14,0,.52,1.51,1.75,1.71,1.25-.18,1.25-.18.88,1.81,1.88,1.84,1.1-.47,1.1-.47-.06,3.59,2.15,3.27,1.27-6.25,1.41-6.85,2.42-4.66,2.42-4.66a3.05,3.05,0,0,0-.27-2.74,67.56,67.56,0,0,0-4.09-6.46c-.91-1.05-2.37-2.92-2.37-2.92Z" style="fill:#ffbf9d"></path><path d="M225.12,331a7.76,7.76,0,0,1,.24,2.23,8,8,0,0,1,0,2.24,8.92,8.92,0,0,1-.23-4.47Z" style="fill:#ff9a6c"></path><path d="M221.67,339.38a3,3,0,0,1-.36-1.68,3,3,0,0,1,.26-1.71,5.09,5.09,0,0,1,.15,1.69C221.74,338.61,221.79,339.36,221.67,339.38Z" style="fill:#ff9a6c"></path><path d="M217.56,335c.1,0,.3.62.78,1.29s.85,1.26.77,1.35-.59-.4-1.11-1.1S217.43,335,217.56,335Z" style="fill:#ff9a6c"></path><path d="M214.63,333.27c.12,0,.28.61.61,1.31s.7,1.23.61,1.31-.61-.34-1-1.12S214.52,333.28,214.63,333.27Z" style="fill:#ff9a6c"></path><path d="M221.19,280.33a75.94,75.94,0,0,0-6.86-5.17c-2.87-1.8-6.83-7.17-7.41-6.1a4.41,4.41,0,0,0,.83,4.91c1.54,1.4,2.92,2.82,2.55,3.18s-3.56-1-3.56-1-.39-2.27-1.16-2.06-3.85,2.7-1.09,5.53l.46.84a2.38,2.38,0,0,0-.43,3.58l.62.93s-1.51,1.9.83,3.87c0,0-.36,2.45,1.39,3.41s12.27-.41,12.57-.6S221.19,280.33,221.19,280.33Z" style="fill:#ffbf9d"></path><path d="M221.19,280.33a4.52,4.52,0,0,1,0,.55c0,.4-.06.92-.11,1.59-.1,1.38-.27,3.4-.52,5.93-.07.63-.14,1.3-.23,2-.05.35-.09.7-.17,1.07,0,0,0,.1,0,.15a.4.4,0,0,1-.08.12s-.05,0-.08,0l-.29.08-.54.09c-1.42.22-3,.4-4.6.56a43.9,43.9,0,0,1-5.23.23,9.76,9.76,0,0,1-1.4-.14,2.37,2.37,0,0,1-1.32-.76,4,4,0,0,1-.78-3l.07.19a3.8,3.8,0,0,1-1.28-1.82,2.75,2.75,0,0,1,.41-2.35v.26l-.61-.92v0a2.57,2.57,0,0,1-.69-2,3,3,0,0,1,1.15-1.87l-.06.28-.46-.85,0,.05-.44-.51c-.14-.19-.26-.39-.39-.6a3,3,0,0,1-.27-2.15,4,4,0,0,1,1.08-1.81,4.44,4.44,0,0,1,.8-.63,1.15,1.15,0,0,1,.54-.2.74.74,0,0,1,.56.31,4.9,4.9,0,0,1,.7,1.93l-.12-.16a16.93,16.93,0,0,0,3,1.06,1,1,0,0,0,.3,0s0,0,0-.09a2.57,2.57,0,0,0-.39-.63,14.56,14.56,0,0,0-1.07-1.15L207.55,274a3.92,3.92,0,0,1-.89-1.35,5,5,0,0,1-.13-3.1c0-.13.08-.25.12-.37a1.29,1.29,0,0,1,.22-.38.5.5,0,0,1,.49-.06,1.53,1.53,0,0,1,.34.16,7.42,7.42,0,0,1,1.08.89c.66.63,1.27,1.26,1.86,1.86a28,28,0,0,0,3.41,3.12,55.87,55.87,0,0,1,5.32,3.94l1.37,1.16.45.42a3.22,3.22,0,0,1-.5-.36l-1.4-1.1c-1.24-.94-3-2.34-5.38-3.83a28.42,28.42,0,0,1-3.49-3.11c-.59-.6-1.2-1.22-1.86-1.83a6.88,6.88,0,0,0-1-.84c-.17-.12-.41-.19-.44-.14s-.08.16-.12.25a3.19,3.19,0,0,0-.11.33,4.62,4.62,0,0,0,.14,2.84,3.5,3.5,0,0,0,.8,1.21l1.14,1.07a15.9,15.9,0,0,1,1.11,1.19,2.79,2.79,0,0,1,.46.76.54.54,0,0,1,0,.32.39.39,0,0,1-.25.29,1.19,1.19,0,0,1-.49,0,16.89,16.89,0,0,1-3.14-1.08l-.1,0,0-.12a4.64,4.64,0,0,0-.62-1.73.36.36,0,0,0-.25-.15,1.05,1.05,0,0,0-.34.14,4.36,4.36,0,0,0-.72.58,3.6,3.6,0,0,0-1,1.6,2.49,2.49,0,0,0,.23,1.83c.11.19.23.37.35.54l.4.47,0,0v0l.45.85.09.16-.15.12a2.57,2.57,0,0,0-1,1.58,2.18,2.18,0,0,0,.59,1.68h0l.61.93.08.13-.09.13a2.33,2.33,0,0,0-.34,2,3.46,3.46,0,0,0,1.14,1.62l.08.07v.12a3.56,3.56,0,0,0,.68,2.71c.59.75,1.56.73,2.46.8a48.16,48.16,0,0,0,5.18-.2c1.63-.14,3.17-.31,4.59-.52l.52-.08a1,1,0,0,0,.23-.05s0-.05.06,0c-.07-.08,0,0,0,0h0l0-.11c.08-.34.12-.7.18-1,.08-.7.17-1.36.25-2,.27-2.5.48-4.5.63-5.91.08-.67.13-1.19.18-1.58A3.56,3.56,0,0,1,221.19,280.33Z" style="fill:#ff9a6c"></path><path d="M263.16,273.75l.21,5.83-43.67.64-.59,11.58,42.6,7.14s18.13,2.89,20.22-12.95c.73-5.57,0-14.8,0-14.8Z" style="fill:#ffbf9d"></path><path d="M270,288.5a17.08,17.08,0,0,0-2.41-5.1,16.37,16.37,0,0,0-4.38-3.77,4.7,4.7,0,0,1,1.63.71,10.93,10.93,0,0,1,3.12,2.81,10.75,10.75,0,0,1,1.82,3.68A4.27,4.27,0,0,1,270,288.5Z" style="fill:#ff9a6c"></path><path d="M208.2,281.84a4.23,4.23,0,0,1-2-.8c-1-.63-1.73-1.36-1.66-1.45a45.07,45.07,0,0,1,3.67,2.25Z" style="fill:#ff9a6c"></path><path d="M207.89,286a3,3,0,0,1-1.81-.4c-1-.44-1.58-1-1.51-1.13s.77.32,1.67.73S207.91,285.82,207.89,286Z" style="fill:#ff9a6c"></path><path d="M208.79,290c0,.11-.8.08-1.66-.36s-1.4-1-1.32-1.13.68.34,1.49.74S208.81,289.85,208.79,290Z" style="fill:#ff9a6c"></path><path d="M205.2,241.15c-1.51,8.12-2.62,17.18-3.49,26.79l20.22,1-4.19-29.16Z" style="fill:#455a64"></path></g><g id="freepik--character-1--inject-469"><path d="M122.14,210.61c-5.69-6.68-12.44-8.65-14.23-17.23-.89-4.29,1.53-14.88-.2-18.9a20.48,20.48,0,0,0-12.29-11.21h0c-5.39-2.36-15.79-1.94-20.53.13s-8.46,6-11.11,10.46c-4.1,6.82-5.91,14.82-6.38,22.76s.32,15.9,1.11,23.81c6.32-1.08,12.78-.6,19.15,0,7,.71,14.08,1.6,21.15,1.45s14.24-1.4,20.46-4.75l-3.54-8A4.72,4.72,0,0,0,122.14,210.61Z" style="fill:#263238"></path><path d="M73,187.1a17.68,17.68,0,0,1,9.39-15.4,21.72,21.72,0,0,1,8.44-2,13.33,13.33,0,0,1,7.78,1.64c1.82.43,8.48,6.54,8.82,13.17.38,7.36.58,14.91-.18,20.42-1.33,9.7-10.6,11.34-10.6,11.34l.8,20.72-20.12-9.78Z" style="fill:#ffbf9d"></path><path d="M90.92,203.41c.25-.58.32-1.25.85-1.5,1.06-.51,2.73.92,4.28,1.64,1,.49-.2,1.23-.7,2.4h0c-.71.57-1.28,1.17-2.18,1l-.42-.1a2.85,2.85,0,0,1-1.65-1.23A2.54,2.54,0,0,1,90.92,203.41Z" style="fill:#ff9a6c"></path><path d="M104,193.63a1.41,1.41,0,0,1-1.38,1.41,1.36,1.36,0,0,1-1.45-1.29,1.44,1.44,0,0,1,1.38-1.42A1.36,1.36,0,0,1,104,193.63Z" style="fill:#263238"></path><path d="M104.85,188.62c-.18.18-1.24-.62-2.76-.64s-2.65.74-2.81.55.1-.41.59-.76a3.88,3.88,0,0,1,2.25-.67,3.77,3.77,0,0,1,2.2.74C104.78,188.2,104.94,188.54,104.85,188.62Z" style="fill:#263238"></path><path d="M95.8,200.61a9.8,9.8,0,0,1,2.47-.42c.39,0,.76-.11.83-.37a2,2,0,0,0-.24-1.16c-.36-.94-.73-1.93-1.12-3-1.55-4.24-2-5.91-1.87-6s.94,1.51,2.49,5.75l1.07,3a2.24,2.24,0,0,1,.18,1.53,1,1,0,0,1-.65.56,2.32,2.32,0,0,1-.66.08A9.56,9.56,0,0,1,95.8,200.61Z" style="fill:#263238"></path><path d="M96.66,216.29a28.12,28.12,0,0,1-14.78-4.11s3.84,7.82,14.9,6.92Z" style="fill:#ff9a6c"></path><path d="M104.58,184c-.23.46-1.56.37-3,.72s-2.69.94-3.08.62c-.17-.16-.07-.59.4-1.08a4.87,4.87,0,0,1,4.93-1.08C104.4,183.46,104.67,183.8,104.58,184Z" style="fill:#263238"></path><path d="M88.29,193.8a1.42,1.42,0,0,0,1.4,1.4,1.36,1.36,0,0,0,1.43-1.32,1.41,1.41,0,0,0-1.4-1.39A1.36,1.36,0,0,0,88.29,193.8Z" style="fill:#263238"></path><path d="M84,188.89c.18.18,1.23-.64,2.75-.68s2.66.7,2.82.51-.11-.41-.6-.76a3.89,3.89,0,0,0-2.26-.63,3.74,3.74,0,0,0-2.19.77C84.07,188.47,83.92,188.81,84,188.89Z" style="fill:#263238"></path><path d="M83.24,183.07c.25.54,1.85.5,3.63,1s3.19,1.2,3.66.84c.21-.18.1-.68-.44-1.27a5.73,5.73,0,0,0-2.75-1.53,5.66,5.66,0,0,0-3.13.07C83.46,182.43,83.13,182.82,83.24,183.07Z" style="fill:#263238"></path><path d="M74.65,197.58c0-.82-.92-2.77-1.73-2.91-2.16-.36-6.07-.23-6.17,5.27C66.61,207.47,75,206,75,205.78S74.63,200.42,74.65,197.58Z" style="fill:#ffbf9d"></path><path d="M72.19,203.05s-.14.09-.36.19a1.36,1.36,0,0,1-1,0,3.25,3.25,0,0,1-1.45-2.94,4.5,4.5,0,0,1,.4-1.87,1.52,1.52,0,0,1,1-1,.67.67,0,0,1,.77.37c.09.21,0,.36.08.37s.17-.12.11-.43a.83.83,0,0,0-.29-.48,1,1,0,0,0-.72-.2,1.84,1.84,0,0,0-1.39,1.14,4.42,4.42,0,0,0-.49,2.09c0,1.51.77,2.95,1.85,3.28a1.37,1.37,0,0,0,1.2-.18C72.17,203.23,72.21,203.07,72.19,203.05Z" style="fill:#ff9a6c"></path><path d="M86.23,198.13l-.15,0a.35.35,0,0,0-.14.53.37.37,0,0,0,.56-.07A.35.35,0,0,0,86.23,198.13Z" style="fill:#ff9a6c"></path><path d="M85.4,200.87l-.16,0a.35.35,0,0,0-.13.54.34.34,0,1,0,.29-.56Z" style="fill:#ff9a6c"></path><path d="M101.85,201.12l-.16,0a.34.34,0,0,0-.13.52.36.36,0,0,0,.55-.07A.34.34,0,0,0,101.85,201.12Z" style="fill:#ff9a6c"></path><path d="M106.77,171.86c-3-4.59-8.15-8.18-13.58-8.65s-11,2.08-15.25,5.53A42.86,42.86,0,0,0,70.88,192c1.64,2,2.75,5.45,4,4.57s.81-3.44,1.16-4.94c.73-3,1.45-6.07,2.18-9.11.76-3.22,1.91-6.9,5-8.12,3.47-1.38,7.58,1.17,11-.2,1.7-.67,3.17-2.26,5-2.08a5,5,0,0,1,3.08,2,22.85,22.85,0,0,1,5.28,13.26A15.81,15.81,0,0,0,106.77,171.86Z" style="fill:#263238"></path><path d="M72.92,194.67c-.7-.6-3.69-8.06.39-16.55s8.07-18,23-14.54A24.1,24.1,0,0,0,85,161.68c-6.08.58-16.14,9.27-17.5,18.41s2.36,14.45,2.78,14.49S72.92,194.67,72.92,194.67Z" style="fill:#E5A17C"></path><path d="M94.14,206.7s-.11.17-.44.29a2.38,2.38,0,0,1-1.45,0,2.66,2.66,0,0,1-1.62-1.43,3.44,3.44,0,0,1,0-2.64,2.21,2.21,0,0,1,.86-1.17,1.4,1.4,0,0,1,1.39,0l1.84.92a6.65,6.65,0,0,1,1.63,1,7.55,7.55,0,0,1-1.79-.64c-1-.24-2.88-1.95-3.44.08a3.17,3.17,0,0,0,0,2.27,2.4,2.4,0,0,0,1.31,1.28A3,3,0,0,0,94.14,206.7Z" style="fill:#263238"></path><path d="M101.78,428.72l-.24,27.64,35.23.47c-.16-3.28-18.29-10.13-18.29-10.13l.9-17.7Z" style="fill:#455a64"></path><path d="M107.6,445.07a1.4,1.4,0,0,0-1,1.59,1.38,1.38,0,0,0,1.6,1,1.49,1.49,0,0,0,1.07-1.69,1.44,1.44,0,0,0-1.79-.86" style="fill:#fff"></path><path d="M101.53,456.42l0-3,33.86,1.72s1.55.69,1.35,1.77Z" style="fill:#263238"></path><path d="M119.05,446.54c0,.16-.87.23-1.72.76s-1.32,1.23-1.48,1.16.12-1,1.16-1.66S119.09,446.38,119.05,446.54Z" style="fill:#263238"></path><path d="M122.72,448.08c0,.16-.71.44-1.3,1.14s-.78,1.45-1,1.44-.26-1,.49-1.82S122.72,447.92,122.72,448.08Z" style="fill:#263238"></path><path d="M124.76,452.42c-.15,0-.38-.8.07-1.72s1.27-1.27,1.34-1.13-.44.63-.8,1.39S124.93,452.41,124.76,452.42Z" style="fill:#263238"></path><path d="M118.8,442.48c-.08.15-.86-.09-1.84,0s-1.73.34-1.82.2.65-.74,1.8-.78S118.88,442.35,118.8,442.48Z" style="fill:#263238"></path><path d="M59.6,410.87,41.08,431.79l26.54,22.62c2.06-2.61-7.22-19.28-7.22-19.28L72.82,422.2Z" style="fill:#455a64"></path><path d="M53.19,427a1.46,1.46,0,0,0-1.83.57,1.34,1.34,0,0,0,.56,1.78,1.54,1.54,0,0,0,1.94-.62,1.39,1.39,0,0,0-.8-1.78" style="fill:#fff"></path><path d="M41,431.83l2-2.25,24.68,22.71s.72,1.51-.15,2.2Z" style="fill:#263238"></path><path d="M60.94,435.37c-.11.12-.81-.38-1.81-.51s-1.82.1-1.9-.05.78-.72,2-.53S61.08,435.27,60.94,435.37Z" style="fill:#263238"></path><path d="M62.72,438.86c-.08.15-.83-.11-1.75.05s-1.55.61-1.68.5.44-.9,1.58-1.08S62.83,438.74,62.72,438.86Z" style="fill:#263238"></path><path d="M61.39,443.46c-.14-.07.25-.86,1.2-1.27s1.81-.16,1.77,0-.75.2-1.53.55S61.53,443.56,61.39,443.46Z" style="fill:#263238"></path><path d="M63.44,432.11c-.16.07-.6-.61-1.37-1.19s-1.55-.83-1.52-1,1-.15,1.89.54S63.59,432.07,63.44,432.11Z" style="fill:#263238"></path><path d="M71.47,296.4a110.81,110.81,0,0,0-6.94,18.53c-5.31,19.48-11.11,37.78-11.63,42.68-.95,8.84-.15,12,12.52,11.82s7-10.73,16.79-7.21,10.45-5.79,10.45-5.79l7.16-59Z" style="fill:#E5A17C"></path><path d="M116.44,301.5l1.17,12.31s14,49.71,12,63.56c-2.43,17.41-8.09,64-8.09,64l-21.72.52s-.46-41.85,3.33-60c4.06-19.43-8.2-77.82-8.2-77.82Z" style="fill:#263238"></path><path d="M112.66,336.37c.35-5.46,4.76-39.67,4.76-39.67l-40.58-1.45s-3,.16-3.6,4.92c0,0-3.65,7.78-3.95,20.59-.24,9.84,6.26,27,6.26,27a229.88,229.88,0,0,0,9.38,21.52L44.27,418.67l20.94,15.64s49.84-50.59,51.75-58.78C119.81,363.25,112.36,340.87,112.66,336.37Z" style="fill:#263238"></path><path d="M105.22,322.32a1.06,1.06,0,0,1,.11.25l.27.75c.23.71.56,1.67,1,2.89l3.49,10.67c1.44,4.52,3.12,9.91,4.79,15.95.84,3,1.68,6.2,2.5,9.52s1.7,6.82,1.26,10.51A14.2,14.2,0,0,1,117,378a36.43,36.43,0,0,1-3,4.28c-2.13,2.67-4.31,5.14-6.39,7.49-4.18,4.67-8.06,8.77-11.35,12.18s-6,6.13-7.9,8c-1,.92-1.69,1.64-2.21,2.11l-.59.53c-.13.12-.2.18-.21.17a1.36,1.36,0,0,1,.17-.21L86,412l2.13-2.19c1.85-1.9,4.51-4.65,7.77-8.09s7.1-7.57,11.26-12.25c2.06-2.36,4.23-4.83,6.34-7.49a37.93,37.93,0,0,0,3-4.21,13.43,13.43,0,0,0,1.59-5c.43-3.54-.46-7-1.24-10.31s-1.63-6.49-2.46-9.51c-1.64-6-3.28-11.44-4.67-16l-3.32-10.72c-.37-1.24-.66-2.21-.87-2.93l-.22-.76A1,1,0,0,1,105.22,322.32Z" style="fill:#455a64"></path><path d="M117.84,294.61l1.66,8.77-46.73,4s.35-8,1.14-10.93S117.84,294.61,117.84,294.61Z" style="fill:#E5A17C"></path><path d="M69,367.07c3.09-3.6,3.88-8.67,3.63-13.42s-1.39-9.4-1.63-14.14c-.36-7,1.28-14,3.83-20.51a149.14,149.14,0,0,1,9.47-18.76c-2.13-.27-11.9-.93-14-1.21l-11,44.53s-3.17,18.3-3.17,18.8S69,367.07,69,367.07Z" style="fill:#E5A17C"></path><path d="M121.91,311c-.74-2.76-2.72-7.47-5.41-8.57l-.42,7.86a91.55,91.55,0,0,0,4.51,19.87A29.67,29.67,0,0,0,121.91,311Z" style="fill:#E5A17C"></path><path d="M110.29,319.27c.9-6.72,3.88-13.23,3.6-20l3.48,3.14c3.26,7.21,4.14,15.22,4.39,23.1s-.06,15.82,1,23.64a16.83,16.83,0,0,0-3.72.46,4,4,0,0,1-3.49-.84,4.59,4.59,0,0,1-.86-1.76C111.86,338,109,328.65,110.29,319.27Z" style="fill:#E5A17C"></path><path d="M115.49,294.81l-1.86-8.27.29-14s-.1-17.34-1-24.11c-.88-6.59-8.39-19.43-8.51-19.84l-3.73-4.83L94,218c-1.19-.48-17.55-.54-17.55-.54l-7.92,12.19,8.51,34.25-.8,32.65Z" style="fill:#ebebeb"></path><path d="M76.63,290.7S97.81,262.8,101,253.93c4.67-12.93,5.59-26.4-2.2-33.1s-18-2.87-22.19.77-7,6.5-7,6.5l4.8,3.26s7.39-15.68,18.38-11.87c7,2.43,10,8.81,9.17,15.31s.11,23.13-25.36,47.29l-4.39,6.7Z" style="fill:#263238"></path><polygon points="147.2 245.56 145.04 243.67 133.41 238.48 109.2 274.89 119.5 283.57 121.92 284.18 147.2 245.56" style="fill:#455a64"></polygon><polygon points="113.82 277.41 140.22 240.18 137.52 238.48 127.75 235.61 113.82 256.51 113.82 277.41" style="fill:#263238"></polygon><path d="M143.47,244c.13.09-5.11,7.94-11.7,17.54s-12,17.31-12.17,17.22,5.11-7.94,11.7-17.54S143.34,243.92,143.47,244Z" style="fill:#263238"></path><path d="M136.57,238.71c.12.09-4.87,7.39-11.15,16.3s-11.47,16.07-11.6,16,4.86-7.39,11.14-16.3S136.44,238.62,136.57,238.71Z" style="fill:#455a64"></path><path d="M133,247.22a14.14,14.14,0,0,1-1.5,2.45c-1,1.47-2.37,3.48-3.93,5.69s-3,4.18-4.07,5.59a15.7,15.7,0,0,1-1.82,2.22,15.27,15.27,0,0,1,1.5-2.46c1-1.47,2.37-3.48,3.93-5.68s3-4.17,4.06-5.58A14.35,14.35,0,0,1,133,247.22Z" style="fill:#fff"></path><path d="M139.61,254.08a29.85,29.85,0,0,1-3.38,5.65,30.11,30.11,0,0,1-4.1,5.15,52.52,52.52,0,0,1,3.64-5.47A53.2,53.2,0,0,1,139.61,254.08Z" style="fill:#fff"></path><path d="M141.57,251.51c.12.1,0,.41-.18.69s-.49.44-.62.34,0-.4.18-.68S141.44,251.42,141.57,251.51Z" style="fill:#fff"></path><path d="M75.24,228.68S66,225,60.85,226s-18.19,14.89-20.39,19.41-10,30.93-11,36.68.33,15.85,4.91,18.43c4.2,2.37,20.87,8,30.46,6.83l.29,0a13.08,13.08,0,0,0,11.5-12.89V240.74Z" style="fill:#263238"></path><path d="M69.43,227.45a7.13,7.13,0,0,1-.86,1.38c-.59.87-1.46,2.11-2.56,3.61-2.22,3-5.39,7.1-9.11,11.44-1.88,2.12-3.55,4.34-5.72,5.71a6.88,6.88,0,0,1-3.41,1.11c-1.1.08-2.12.15-3.07.15a8.88,8.88,0,0,1-4.36-.87,4.44,4.44,0,0,1-1-.72q-.29-.3-.27-.33a12.61,12.61,0,0,0,1.36.86,9.21,9.21,0,0,0,4.26.66c.92,0,1.93-.12,3-.22a6.34,6.34,0,0,0,3.17-1.08c2-1.3,3.69-3.51,5.57-5.64,3.71-4.32,6.93-8.36,9.22-11.31l2.7-3.5A10,10,0,0,1,69.43,227.45Z" style="fill:#455a64"></path><path d="M77,292.12a13.65,13.65,0,0,1-1.92-.11c-1.23-.11-3-.3-5.19-.56-4.38-.53-10.42-1.42-17-2.69S40.29,286.08,36,285c-2.14-.56-3.86-1-5-1.4a12.66,12.66,0,0,1-1.82-.61,11.62,11.62,0,0,1,1.88.39l5.07,1.23c4.29,1,10.23,2.38,16.83,3.65s12.62,2.21,17,2.84l5.17.74A11.59,11.59,0,0,1,77,292.12Z" style="fill:#455a64"></path><path d="M55,246a9.4,9.4,0,0,1,.15,1.67c.07,1.08.11,2.64.13,4.57a142.92,142.92,0,0,1-.71,15.06,146.23,146.23,0,0,1-2.28,14.91c-.4,1.89-.76,3.41-1,4.45a8.78,8.78,0,0,1-.48,1.61,9.56,9.56,0,0,1,.26-1.65c.22-1.16.51-2.67.85-4.49.7-3.78,1.53-9,2.12-14.88s.8-11.16.87-15c0-1.85,0-3.39,0-4.56A9.69,9.69,0,0,1,55,246Z" style="fill:#455a64"></path><path d="M59.84,228.57a21.36,21.36,0,0,1-1.89-3.8,1.27,1.27,0,0,1,.81-1.9,14,14,0,0,1,7.85-1.55,3.3,3.3,0,0,1,1.58.46A2.8,2.8,0,0,1,69,224.7c-.23,1.05-.73,2-.87,3.1l-1.46-.35.6-3.57a1.64,1.64,0,0,0-.09-1.18c-.33-.52-1.08-.55-1.71-.51-1.49.1-3,.26-4.46.47-.73.1-1.58.32-1.81,1a1.83,1.83,0,0,0,.26,1.39,13.14,13.14,0,0,0,2.31,3.23" style="fill:#263238"></path><path d="M48,248.42l-2.81.18a1.12,1.12,0,0,0-.18.54c-.07.55-.15,1.09-.22,1.63a4.59,4.59,0,0,0,0,1.61,1.56,1.56,0,0,0,1,1.18,1.61,1.61,0,0,0,1.76-.94,5.44,5.44,0,0,0,.47-2.07C48,249.85,48,249.25,48,248.42Z" style="fill:#455a64"></path><path d="M53.84,271a14.54,14.54,0,0,1-3-.29c-1.82-.27-4.33-.73-7.08-1.36s-5.2-1.31-7-1.87a14.28,14.28,0,0,1-2.8-1,16.31,16.31,0,0,1,2.91.65c1.78.45,4.25,1.07,7,1.7s5.22,1.14,7,1.51A17.09,17.09,0,0,1,53.84,271Z" style="fill:#455a64"></path><path d="M50.23,257.47a2.78,2.78,0,0,0-2.55-.07,6.1,6.1,0,0,0-2.16,2A13.25,13.25,0,0,0,44.29,257a3.4,3.4,0,0,0-1.9-1.24,2.1,2.1,0,0,0-2.32,1.46,5,5,0,0,0,.8,3.82,27.35,27.35,0,0,0,2.81,4.42,1.13,1.13,0,0,0,1.55.19,31.26,31.26,0,0,0,4.85-4.7,4.13,4.13,0,0,0,1-1.8A1.84,1.84,0,0,0,50.23,257.47Z" style="fill:#E5A17C"></path><path d="M69,254.33a1.81,1.81,0,0,1,.48.66,3,3,0,0,1,.05,2.35,3.13,3.13,0,0,1-1,1.41,2.62,2.62,0,0,1-2,.51,3.8,3.8,0,0,1-2.14-1.09A2.87,2.87,0,0,1,63.6,257a2,2,0,0,1,.11-1.46v0l0,0a.8.8,0,0,1,.92-.12,3.32,3.32,0,0,1,.69.46,9.23,9.23,0,0,1,1.12,1.21,12.79,12.79,0,0,1,1.78,3,5.25,5.25,0,0,1,0,3.8A4,4,0,0,1,67,265.53a3.26,3.26,0,0,1-2,.68,3.78,3.78,0,0,1-2.1-.61,2.66,2.66,0,0,1-1.28-1.87,1.94,1.94,0,0,1,.2-1.22,1.17,1.17,0,0,1,1.18-.62,2.71,2.71,0,0,1,1.08.57c.3.22.6.46.89.71A8.13,8.13,0,0,1,67.51,267a5.13,5.13,0,0,1-.93,4.68,4,4,0,0,1-4.42,1.08,2.78,2.78,0,0,1-1.68-1.67,1.82,1.82,0,0,1,0-1.26,1.39,1.39,0,0,1,1-.82,3,3,0,0,1,2.2.65,10.81,10.81,0,0,1,1.63,1.38,7.87,7.87,0,0,1,2.07,3.56A5.24,5.24,0,0,1,64.11,281a4.07,4.07,0,0,1-3.4-.69,3.29,3.29,0,0,1-1.48-2.82,2.19,2.19,0,0,1,.59-1.45,1.43,1.43,0,0,1,1.46-.33,3.38,3.38,0,0,1,1.78,1.89,9.29,9.29,0,0,1,.9,4,9,9,0,0,1-.38,2.54c-.09.28-.17.49-.23.63a.93.93,0,0,1-.1.21,11.85,11.85,0,0,0,.49-3.38,9.24,9.24,0,0,0-1-3.84A3.1,3.1,0,0,0,61.17,276a1.06,1.06,0,0,0-1.08.26,1.81,1.81,0,0,0-.47,1.2c-.12,1.88,2.24,3.63,4.36,3a4.76,4.76,0,0,0,2.91-5.74,7.41,7.41,0,0,0-2-3.32,10.78,10.78,0,0,0-1.55-1.3,2.56,2.56,0,0,0-1.77-.56A1,1,0,0,0,61,271a2.26,2.26,0,0,0,1.35,1.32,3.49,3.49,0,0,0,3.79-.93,4.6,4.6,0,0,0,.82-4.17,7.62,7.62,0,0,0-2.42-3.59c-.27-.24-.56-.47-.85-.68a2.15,2.15,0,0,0-.83-.47c-.51-.11-.89.64-.77,1.22a2.77,2.77,0,0,0,2.85,2,3,3,0,0,0,2.8-2,4.84,4.84,0,0,0,.07-3.45,12.39,12.39,0,0,0-1.69-2.9,7.85,7.85,0,0,0-1-1.16c-.35-.32-.86-.63-1-.39l0,0a1.9,1.9,0,0,0,.52,2.18,3.59,3.59,0,0,0,1.94,1,2.34,2.34,0,0,0,1.82-.42,2.92,2.92,0,0,0,1-1.28,3,3,0,0,0,.05-2.23C69.16,254.55,69,254.35,69,254.33Z" style="fill:#fff"></path><path d="M74.41,277.41A9,9,0,0,1,72.54,280a9.17,9.17,0,0,1-2.29,2.19,9,9,0,0,1,1.87-2.56A8.93,8.93,0,0,1,74.41,277.41Z" style="fill:#fff"></path><path d="M75.24,228.68S66,225,60.85,226s-18.19,14.89-20.39,19.41-10,30.93-11,36.68.33,15.85,4.91,18.43c4.2,2.37,20.87,8,30.46,6.83l.29,0a13.08,13.08,0,0,0,11.5-12.89V240.74Z" style="fill:#263238"></path><path d="M69.43,227.45a7.13,7.13,0,0,1-.86,1.38c-.59.87-1.46,2.11-2.56,3.61-2.22,3-5.39,7.1-9.11,11.44-1.88,2.12-3.55,4.34-5.72,5.71a6.88,6.88,0,0,1-3.41,1.11c-1.1.08-2.12.15-3.07.15a8.88,8.88,0,0,1-4.36-.87,4.44,4.44,0,0,1-1-.72q-.29-.3-.27-.33a12.61,12.61,0,0,0,1.36.86,9.21,9.21,0,0,0,4.26.66c.92,0,1.93-.12,3-.22a6.34,6.34,0,0,0,3.17-1.08c2-1.3,3.69-3.51,5.57-5.64,3.71-4.32,6.93-8.36,9.22-11.31l2.7-3.5A10,10,0,0,1,69.43,227.45Z" style="fill:#455a64"></path><path d="M77,292.12a13.65,13.65,0,0,1-1.92-.11c-1.23-.11-3-.3-5.19-.56-4.38-.53-10.42-1.42-17-2.69S40.29,286.08,36,285c-2.14-.56-3.86-1-5-1.4a12.66,12.66,0,0,1-1.82-.61,11.62,11.62,0,0,1,1.88.39l5.07,1.23c4.29,1,10.23,2.38,16.83,3.65s12.62,2.21,17,2.84l5.17.74A11.59,11.59,0,0,1,77,292.12Z" style="fill:#455a64"></path><path d="M55,246a9.4,9.4,0,0,1,.15,1.67c.07,1.08.11,2.64.13,4.57a142.92,142.92,0,0,1-.71,15.06,146.23,146.23,0,0,1-2.28,14.91c-.4,1.89-.76,3.41-1,4.45a8.78,8.78,0,0,1-.48,1.61,9.56,9.56,0,0,1,.26-1.65c.22-1.16.51-2.67.85-4.49.7-3.78,1.53-9,2.12-14.88s.8-11.16.87-15c0-1.85,0-3.39,0-4.56A9.69,9.69,0,0,1,55,246Z" style="fill:#455a64"></path><path d="M59.84,228.57a21.36,21.36,0,0,1-1.89-3.8,1.27,1.27,0,0,1,.81-1.9,14,14,0,0,1,7.85-1.55,3.3,3.3,0,0,1,1.58.46A2.8,2.8,0,0,1,69,224.7c-.23,1.05-.73,2-.87,3.1l-1.46-.35.6-3.57a1.64,1.64,0,0,0-.09-1.18c-.33-.52-1.08-.55-1.71-.51-1.49.1-3,.26-4.46.47-.73.1-1.58.32-1.81,1a1.83,1.83,0,0,0,.26,1.39,13.14,13.14,0,0,0,2.31,3.23" style="fill:#263238"></path><path d="M48,248.42l-2.81.18a1.12,1.12,0,0,0-.18.54c-.07.55-.15,1.09-.22,1.63a4.59,4.59,0,0,0,0,1.61,1.56,1.56,0,0,0,1,1.18,1.61,1.61,0,0,0,1.76-.94,5.44,5.44,0,0,0,.47-2.07C48,249.85,48,249.25,48,248.42Z" style="fill:#455a64"></path><path d="M53.84,271a14.54,14.54,0,0,1-3-.29c-1.82-.27-4.33-.73-7.08-1.36s-5.2-1.31-7-1.87a14.28,14.28,0,0,1-2.8-1,16.31,16.31,0,0,1,2.91.65c1.78.45,4.25,1.07,7,1.7s5.22,1.14,7,1.51A17.09,17.09,0,0,1,53.84,271Z" style="fill:#455a64"></path><path d="M50.23,257.47a2.78,2.78,0,0,0-2.55-.07,6.1,6.1,0,0,0-2.16,2A13.25,13.25,0,0,0,44.29,257a3.4,3.4,0,0,0-1.9-1.24,2.1,2.1,0,0,0-2.32,1.46,5,5,0,0,0,.8,3.82,27.35,27.35,0,0,0,2.81,4.42,1.13,1.13,0,0,0,1.55.19,31.26,31.26,0,0,0,4.85-4.7,4.13,4.13,0,0,0,1-1.8A1.84,1.84,0,0,0,50.23,257.47Z" style="fill:#E5A17C"></path><path d="M133.62,270.09s.54-1.64,0-2.45a2.67,2.67,0,0,0-3.08-.57c-1,.46-2.78,1.56-2.66,2.25a4.32,4.32,0,0,0,.36,1.16s-4-1.62-4.89-1.82-3,.72-2.42,2.23l.22.41a2.2,2.2,0,0,0-2.46-.18,2.28,2.28,0,0,0-.48,3.21s-2.12-.08-2.18,1.71.42,1.8.42,1.8a2.13,2.13,0,0,0-.86,2.61c.24,1,6.25,4.62,8.18,4s2.3-1.79,3-2a5.68,5.68,0,0,0,2.66-1.74c.43-.75,2.05-1.5,2.21-2.55s.93-2.39,1-3.85a24.57,24.57,0,0,1,.49-3.42Z" style="fill:#ffbf9d"></path><path d="M133.62,270.09a4.64,4.64,0,0,1-.42.85v0a34,34,0,0,0-.46,4,24.24,24.24,0,0,1-.84,3l-.08.42a1.5,1.5,0,0,1-.17.46,3.18,3.18,0,0,1-.61.75,12,12,0,0,0-1.36,1.28,4,4,0,0,1-1.62,1.39,9.39,9.39,0,0,1-1,.47,1.32,1.32,0,0,0-.43.2,3.92,3.92,0,0,0-.38.35,5.14,5.14,0,0,1-1.92,1.39,2.55,2.55,0,0,1-1.27.23,5.15,5.15,0,0,1-1.24-.25,18.63,18.63,0,0,1-4.61-2.27c-.37-.24-.73-.51-1.09-.79a6,6,0,0,1-.51-.5,1.33,1.33,0,0,1-.34-.73,2.47,2.47,0,0,1,1.06-2.68l.12.54a.54.54,0,0,1-.42-.28,2.69,2.69,0,0,1-.28-1.33,2.75,2.75,0,0,1,.2-1.3,1.83,1.83,0,0,1,1-.92,3.29,3.29,0,0,1,1.27-.24l-.24.45a2.62,2.62,0,0,1,.19-3.3,2.19,2.19,0,0,1,1.58-.67,2.76,2.76,0,0,1,1.56.56l-.39.33-.22-.41h0v0a1.6,1.6,0,0,1,.13-1.44,2.51,2.51,0,0,1,1-.86,2.94,2.94,0,0,1,1.28-.3,4.91,4.91,0,0,1,1.19.33c1.44.52,2.77,1.07,4,1.58l-.26.29a4.83,4.83,0,0,1-.38-1.21.94.94,0,0,1,.22-.69,2.94,2.94,0,0,1,.42-.44,9.11,9.11,0,0,1,1.8-1.16,3,3,0,0,1,3.33.2,1.55,1.55,0,0,1,.49,1.18,4,4,0,0,1-.09.92,1.9,1.9,0,0,1-.23.71,6.88,6.88,0,0,1,.11-.73,4.13,4.13,0,0,0,0-.89,1.38,1.38,0,0,0-.46-1,2.79,2.79,0,0,0-3-.08,8.78,8.78,0,0,0-1.7,1.15c-.24.22-.53.55-.49.77a4.55,4.55,0,0,0,.35,1.08l.24.5-.51-.2c-1.23-.49-2.57-1-4-1.52a4.7,4.7,0,0,0-1-.28,2.44,2.44,0,0,0-1,.25,2.07,2.07,0,0,0-.82.69,1,1,0,0,0-.08,1v0l.22.41.55,1-1-.68a2.2,2.2,0,0,0-1.24-.44,1.65,1.65,0,0,0-1.18.51,2.08,2.08,0,0,0-.13,2.59l.32.44h-.55a1.88,1.88,0,0,0-1.75.84,2.31,2.31,0,0,0-.14,1.05,2.4,2.4,0,0,0,.19,1l0,0,0,.05,0,.06,0,0v0h0l0-.19h0l.13.54a1.93,1.93,0,0,0-.76,2.08.67.67,0,0,0,.22.46,3.6,3.6,0,0,0,.44.43c.33.27.68.52,1,.76a18.55,18.55,0,0,0,4.45,2.23,5.19,5.19,0,0,0,1.12.23,1.91,1.91,0,0,0,1-.19,4.53,4.53,0,0,0,1.77-1.26,4.21,4.21,0,0,1,.44-.39,1.63,1.63,0,0,1,.56-.26,8.94,8.94,0,0,0,.95-.43,3.75,3.75,0,0,0,1.48-1.23,10.84,10.84,0,0,1,1.44-1.33,2.67,2.67,0,0,0,.54-.64,2.31,2.31,0,0,0,.24-.78c.32-1.12.76-2,.9-2.92a25.31,25.31,0,0,1,.63-4v0h0A4.86,4.86,0,0,1,133.62,270.09Z" style="fill:#ff9a6c"></path><path d="M119.59,281c-.07.13-1.1-.35-2-1.36s-1.34-2.07-1.21-2.13.74.8,1.62,1.74S119.68,280.89,119.59,281Z" style="fill:#ff9a6c"></path><path d="M123,278.27a11.26,11.26,0,0,1-2.42-1.93c-1.27-1.11-2.32-2-2.23-2.14a11.62,11.62,0,0,1,4.65,4.07Z" style="fill:#ff9a6c"></path><path d="M127.75,275.37a10.88,10.88,0,0,1-3.56-1.61,11.14,11.14,0,0,1-3.13-2.34,18.2,18.2,0,0,1,3.42,1.85A18.52,18.52,0,0,1,127.75,275.37Z" style="fill:#ff9a6c"></path><path d="M132.12,271.36c.06.13-.87.6-2.05.31s-1.81-1.12-1.69-1.2.8.43,1.82.65S132.07,271.2,132.12,271.36Z" style="fill:#ff9a6c"></path><path d="M112.91,299.14a4.65,4.65,0,1,0,4.65-4.85A4.75,4.75,0,0,0,112.91,299.14Z" style="fill:#E5A17C"></path><path d="M119,294.43a1.86,1.86,0,0,0-.8-.24,4.55,4.55,0,0,0-2.31.2,4.76,4.76,0,0,0-2.56,2.26,5.28,5.28,0,0,0-.52,4.09,5.23,5.23,0,0,0,2.64,3.23,4.71,4.71,0,0,0,3.44.26,4.65,4.65,0,0,0,2-1.16c.37-.4.49-.67.46-.69a6.56,6.56,0,0,1-2.57,1.4,4.36,4.36,0,0,1-3-.35,4.75,4.75,0,0,1-2.27-2.87,4.8,4.8,0,0,1,.42-3.63,4.44,4.44,0,0,1,2.19-2.11,4.88,4.88,0,0,1,2.11-.37C118.68,294.46,119,294.49,119,294.43Z" style="fill:#263238"></path><path d="M118.12,303.76a3.76,3.76,0,0,1,.44,1c.26.65.59,1.6,1,2.8a61.33,61.33,0,0,1,2.06,9.52,62,62,0,0,1,.55,9.73c0,1.25-.1,2.26-.17,2.95a3.77,3.77,0,0,1-.17,1.07c-.09,0,0-1.54-.06-4a80.06,80.06,0,0,0-.71-9.65,83.7,83.7,0,0,0-1.88-9.5C118.5,305.25,118,303.79,118.12,303.76Z" style="fill:#263238"></path><rect x="175.83" y="226.13" width="3.65" height="37.18" rx="1.68" transform="translate(71.23 -38.34) rotate(15.37)" style="fill:#263238"></rect><path d="M88.29,241.77s25.31,14.36,32.76,16.62,47.61-.28,47.61-.28l-.32-7.92-38.1-5.34L102,228.61Z" style="fill:#ffbf9d"></path><path d="M98.36,222.68c-2.64-1.81-5.53-3.66-8.73-3.56l-2.45.18c-4.39,1.95-6.86,7-6.6,11.84s2.84,9.24,6.24,12.64,7.56,5.9,11.71,8.33a93.4,93.4,0,0,0,14.47-19C108.15,229.57,103.3,226.06,98.36,222.68Z" style="fill:#ebebeb"></path><path d="M166,249.86s.75-4.64,2.67-6.51,2.24-6.25,3.39-6.35,2.68.87,2,4.27c-.75,3.61-.33,3.81.45,4.47,1.27,1.1,5.38-.17,5.6-2.11.19-1.58,1.33-1.25,1.33-1.25a3.83,3.83,0,0,1,1,3.05l-.41,1.71a3,3,0,0,1,.93,2.72,14.47,14.47,0,0,1-.73,2.17s1.33.58,1.13,1.62c0,.06,0,.14-.05.23a6.52,6.52,0,0,1-6.59,4.79l-10.74-.4Z" style="fill:#ffbf9d"></path><path d="M108.75,239.62a7.77,7.77,0,0,1-.65,1.14c-.45.72-1.15,1.73-2.06,3a61.64,61.64,0,0,1-8.17,8.9l-.15.13-.16-.11c-.47-.33-1-.64-1.49-1a80.57,80.57,0,0,1-9.78-9c-1.17-1.23-2.09-2.26-2.71-3a7.89,7.89,0,0,1-.92-1.15,7.74,7.74,0,0,1,1.07,1l2.82,2.86a97,97,0,0,0,9.82,8.84c.49.37,1,.68,1.47,1l-.31,0a72.41,72.41,0,0,0,8.24-8.72c.94-1.2,1.67-2.18,2.17-2.86A6.23,6.23,0,0,1,108.75,239.62Z" style="fill:#263238"></path></g></svg>
