<svg xmlns="http://www.w3.org/2000/svg" width="36" height="36" id="award">
  <g transform="translate(-479 -1670.651)">
    <path fill="#406b95" fill-rule="evenodd" d="M502.807 1674.651h-11.636l-2.829 2 1.515 2h13.834l1.517-2.42z"></path>
    <path fill="#105286" d="m502.79 1674.655 3.464 2c1.2.692 1.587 2.204.915 3.415l-7.5 13.526h-5.164l9.2-15.526c.706-1.192.817-2.415-.915-3.415"></path>
    <path fill="#104486" d="m497.5 1688.542-2.568 4.336.398.719h4.34l.398-.72-2.568-4.335z"></path>
    <path fill="#105286" d="m491.21 1674.655-3.464 2c-1.2.692-1.587 2.204-.915 3.415l7.5 13.526h5.164l-9.2-15.526c-.706-1.192-.817-2.415.915-3.415"></path>
    <circle cx="496.996" cy="1699.362" r="3.5" fill="#ee7581" stroke="#f9b537" stroke-dashoffset="3.4" stroke-linecap="round" stroke-linejoin="round"></circle>
    <path fill="none" stroke="#f9b536" stroke-dashoffset="3.4" stroke-width=".893" d="M494.764 1696.747v-2.735h4.465v2.623"></path>
  </g>
</svg>
